<svg xmlns="http://www.w3.org/2000/svg" width="32" height="32" viewBox="0 0 32 32" fill="none">
  <rect width="32" height="32" rx="6" fill="#1E3A8A"/>
  <path d="M8 10C8 9.44772 8.44772 9 9 9H23C23.5523 9 24 9.44772 24 10V22C24 22.5523 23.5523 23 23 23H9C8.44772 23 8 22.5523 8 22V10Z" fill="#F1F5F9"/>
  <path d="M10 12H22V13H10V12Z" fill="#3B82F6"/>
  <path d="M10 15H22V16H10V15Z" fill="#3B82F6"/>
  <path d="M10 18H18V19H10V18Z" fill="#3B82F6"/>
  <circle cx="20" cy="18.5" r="1.5" fill="#16A34A"/>
  <path d="M19.3 18.5L19.7 18.9L20.7 17.9" stroke="white" stroke-width="0.5" fill="none" stroke-linecap="round" stroke-linejoin="round"/>
</svg>